<svg xmlns="http://www.w3.org/2000/svg" xmlns:xlink="http://www.w3.org/1999/xlink" width="180" zoomAndPan="magnify" viewBox="0 0 135 44.999999" height="60" preserveAspectRatio="xMidYMid meet" version="1.0"><defs><clipPath id="dd7375731b"><path d="M 68 12.828125 L 82 12.828125 L 82 29 L 68 29 Z M 68 12.828125 " clip-rule="nonzero"/></clipPath><clipPath id="9d3191e7be"><path d="M 120 17 L 130.792969 17 L 130.792969 29 L 120 29 Z M 120 17 " clip-rule="nonzero"/></clipPath><clipPath id="51faeccd5a"><path d="M 96 12.828125 L 111 12.828125 L 111 29 L 96 29 Z M 96 12.828125 " clip-rule="nonzero"/></clipPath><clipPath id="ed18639919"><path d="M 19 12.828125 L 36 12.828125 L 36 29 L 19 29 Z M 19 12.828125 " clip-rule="nonzero"/></clipPath><clipPath id="78239dd285"><path d="M 3.292969 23 L 20 23 L 20 29 L 3.292969 29 Z M 3.292969 23 " clip-rule="nonzero"/></clipPath></defs><rect x="-13.5" width="162" fill="#ffffff" y="-4.5" height="53.999999" fill-opacity="1"/><rect x="-13.5" width="162" fill="#ffffff" y="-4.5" height="53.999999" fill-opacity="1"/><path fill="#1b1f23" d="M 113.492188 22.089844 L 117.003906 22.089844 C 117.285156 20.796875 117.328125 20.25 117.113281 20 C 117 19.863281 116.761719 19.792969 116.214844 19.792969 L 115.308594 19.792969 C 114.683594 19.792969 114.386719 19.894531 114.191406 20.089844 C 114.027344 20.25 113.835938 20.753906 113.492188 22.089844 Z M 112.007812 28.71875 C 110.898438 28.71875 110.273438 28.535156 109.808594 28.070312 C 108.921875 27.179688 108.820312 25.707031 109.527344 22.816406 C 110.210938 19.988281 110.796875 19.058594 111.445312 18.410156 C 112.230469 17.621094 112.9375 17.398438 114.210938 17.398438 L 117.964844 17.398438 C 119.074219 17.398438 119.699219 17.582031 120.164062 18.046875 C 121.050781 18.9375 120.992188 20.289062 120.265625 23.179688 C 120.144531 23.664062 120 23.804688 119.457031 23.804688 L 113.070312 23.804688 C 112.726562 25.261719 112.714844 25.808594 112.847656 26.039062 C 112.9375 26.1875 113.097656 26.332031 113.640625 26.332031 L 114.527344 26.332031 C 115.375 26.332031 115.589844 26.332031 115.8125 26.109375 C 115.953125 25.96875 116.214844 25.28125 116.355469 24.714844 L 119.878906 24.714844 C 119.394531 26.472656 119.011719 27.222656 118.527344 27.707031 C 117.742188 28.496094 117.035156 28.71875 115.761719 28.71875 Z M 112.007812 28.71875 " fill-opacity="1" fill-rule="evenodd"/><path fill="#f00a36" d="M 26.636719 21.824219 L 31.695312 21.824219 L 31.035156 24.492188 L 25.972656 24.492188 Z M 26.636719 21.824219 " fill-opacity="1" fill-rule="evenodd"/><path fill="#f00a36" d="M 49.394531 17.398438 L 46.613281 28.71875 L 42.539062 28.71875 L 42.902344 27.253906 C 41.457031 28.367188 40.660156 28.738281 39.511719 28.738281 L 38.863281 28.738281 C 37.996094 28.738281 37.410156 28.574219 36.96875 28.132812 C 36.34375 27.503906 36.421875 26.292969 36.804688 24.734375 L 38.644531 17.398438 L 42.71875 17.398438 L 40.785156 25.199219 C 40.664062 25.683594 40.6875 26.007812 40.847656 26.167969 C 40.96875 26.289062 41.109375 26.328125 41.332031 26.328125 L 41.675781 26.328125 C 42.058594 26.328125 42.460938 26.207031 43.230469 25.867188 L 45.324219 17.398438 Z M 49.394531 17.398438 " fill-opacity="1" fill-rule="evenodd"/><path fill="#f00a36" d="M 63.074219 26.324219 C 63.464844 26.324219 63.714844 26.3125 63.949219 26.078125 C 64.136719 25.890625 64.351562 25.347656 64.894531 23.125 C 65.527344 20.53125 65.429688 20.179688 65.238281 19.984375 C 65.0625 19.8125 64.828125 19.792969 64.324219 19.792969 L 63.585938 19.792969 C 63.195312 19.792969 62.945312 19.804688 62.710938 20.039062 C 62.558594 20.191406 62.363281 20.542969 61.761719 22.992188 C 61.128906 25.582031 61.226562 25.9375 61.421875 26.132812 C 61.59375 26.304688 61.832031 26.324219 62.335938 26.324219 Z M 66.789062 27.707031 C 66.003906 28.496094 65.296875 28.71875 64.023438 28.71875 L 60.433594 28.71875 C 59.320312 28.71875 58.695312 28.535156 58.230469 28.070312 C 57.34375 27.179688 57.242188 25.707031 57.949219 22.816406 C 58.636719 19.988281 59.222656 19.058594 59.867188 18.410156 C 60.65625 17.621094 61.359375 17.398438 62.632812 17.398438 L 66.226562 17.398438 C 67.335938 17.398438 67.960938 17.582031 68.425781 18.046875 C 69.3125 18.9375 69.414062 20.410156 68.707031 23.300781 C 68.019531 26.128906 67.4375 27.058594 66.789062 27.707031 Z M 66.789062 27.707031 " fill-opacity="1" fill-rule="evenodd"/><g clip-path="url(#dd7375731b)"><path fill="#1b1f23" d="M 76.523438 16.125 L 73.402344 28.71875 L 69.0625 28.71875 L 72.183594 16.125 L 68.105469 16.125 L 68.933594 12.828125 L 81.527344 12.828125 L 80.699219 16.125 Z M 76.523438 16.125 " fill-opacity="1" fill-rule="evenodd"/></g><path fill="#1b1f23" d="M 75.519531 28.71875 L 78.324219 17.398438 L 82.402344 17.398438 L 82 19.039062 C 83.371094 17.90625 84.078125 17.398438 84.945312 17.398438 L 86.035156 17.398438 L 85.199219 20.824219 L 84.046875 20.824219 C 83.160156 20.824219 82.472656 20.921875 81.425781 21.328125 L 79.617188 28.71875 Z M 75.519531 28.71875 " fill-opacity="1" fill-rule="evenodd"/><g clip-path="url(#9d3191e7be)"><path fill="#1b1f23" d="M 120.0625 28.71875 L 122.867188 17.398438 L 126.945312 17.398438 L 126.539062 19.039062 C 127.914062 17.90625 128.621094 17.398438 129.488281 17.398438 L 130.578125 17.398438 L 129.742188 20.824219 L 128.589844 20.824219 C 127.703125 20.824219 127.015625 20.921875 125.964844 21.328125 L 124.160156 28.71875 Z M 120.0625 28.71875 " fill-opacity="1" fill-rule="evenodd"/></g><path fill="#1b1f23" d="M 91.402344 25.824219 L 91.933594 23.78125 L 90.421875 23.78125 C 89.207031 23.78125 88.886719 23.855469 88.5625 24.179688 C 88.339844 24.402344 88.207031 24.703125 88.109375 25.078125 C 88.011719 25.472656 87.964844 26.09375 88.164062 26.269531 C 88.335938 26.441406 88.632812 26.515625 89.03125 26.515625 L 89.511719 26.515625 C 89.933594 26.515625 90.480469 26.386719 91.402344 25.824219 Z M 90.695312 28.71875 L 91.003906 27.457031 C 89.585938 28.425781 89.042969 28.738281 88.074219 28.738281 L 86.644531 28.738281 C 85.492188 28.738281 85.054688 28.523438 84.671875 28.140625 C 84.167969 27.636719 84.066406 26.464844 84.410156 25.113281 C 84.753906 23.738281 85.085938 23.136719 85.589844 22.632812 C 86.316406 21.902344 87.519531 21.761719 89.054688 21.761719 C 90.285156 21.761719 91.40625 22.070312 92.292969 22.332031 L 92.589844 21.140625 C 92.8125 20.25 92.832031 20.070312 92.691406 19.929688 C 92.589844 19.828125 92.429688 19.785156 92.085938 19.785156 L 90.816406 19.785156 C 90.476562 19.785156 90.253906 19.808594 90.089844 19.96875 C 89.949219 20.109375 89.84375 20.316406 89.703125 20.824219 L 86.140625 20.824219 C 86.644531 18.820312 86.914062 18.632812 87.335938 18.207031 C 87.964844 17.582031 88.730469 17.398438 89.820312 17.398438 L 93.367188 17.398438 C 97.058594 17.398438 96.984375 19.347656 96.457031 21.546875 L 94.671875 28.71875 Z M 90.695312 28.71875 " fill-opacity="1" fill-rule="evenodd"/><g clip-path="url(#51faeccd5a)"><path fill="#1b1f23" d="M 103.519531 25.691406 L 104.886719 20.179688 C 104.394531 19.90625 104.15625 19.785156 103.496094 19.785156 L 103.261719 19.785156 C 102.699219 19.785156 102.308594 19.859375 102.011719 20.152344 C 101.71875 20.449219 101.433594 20.976562 100.941406 23.140625 C 100.449219 25.300781 100.425781 25.765625 100.746094 26.085938 C 100.890625 26.234375 101.089844 26.332031 101.652344 26.332031 L 101.761719 26.332031 C 102.472656 26.332031 102.835938 26.085938 103.519531 25.691406 Z M 102.707031 17.378906 C 103.472656 17.378906 103.957031 17.621094 105.25 18.773438 L 106.722656 12.828125 L 110.820312 12.828125 L 106.863281 28.71875 L 102.765625 28.71875 L 103.128906 27.242188 C 101.433594 28.433594 100.949219 28.738281 99.800781 28.738281 L 99.292969 28.738281 C 98.285156 28.738281 97.78125 28.535156 97.335938 28.089844 C 96.570312 27.324219 96.550781 25.886719 97.296875 22.875 C 97.960938 20.148438 98.546875 19.199219 99.316406 18.429688 C 100.140625 17.601562 101.132812 17.378906 102.242188 17.378906 Z M 102.707031 17.378906 " fill-opacity="1" fill-rule="evenodd"/></g><path fill="#f00a36" d="M 53.773438 25.058594 C 53.613281 25.683594 53.59375 25.988281 53.753906 26.148438 C 53.875 26.269531 54.015625 26.328125 54.722656 26.328125 L 56.097656 26.328125 L 55.601562 28.292969 L 54.609375 28.515625 C 53.882812 28.695312 52.9375 28.816406 52.089844 28.816406 C 50.898438 28.816406 50.292969 28.554688 49.867188 28.128906 C 49.324219 27.585938 49.28125 26.714844 49.667969 25.160156 L 50.984375 19.785156 L 49.804688 19.785156 L 50.386719 17.398438 L 51.582031 17.398438 L 51.882812 16.207031 L 53.21875 15.183594 C 53.734375 14.785156 54.367188 14.570312 55.015625 14.570312 L 56.386719 14.570312 L 55.679688 17.398438 L 58.242188 17.398438 L 57.664062 19.785156 L 55.082031 19.785156 Z M 53.773438 25.058594 " fill-opacity="1" fill-rule="evenodd"/><g clip-path="url(#ed18639919)"><path fill="#f00a36" d="M 31.097656 28.71875 L 30.652344 16.78125 L 30.121094 16.78125 L 23.867188 28.71875 L 19.167969 28.71875 L 27.496094 14.242188 C 27.953125 13.480469 28.6875 12.851562 29.359375 12.851562 L 32.941406 12.851562 C 34.230469 12.851562 34.324219 13.058594 34.460938 14.679688 L 35.582031 28.71875 Z M 31.097656 28.71875 " fill-opacity="1" fill-rule="evenodd"/></g><path fill="#f00a36" d="M 10.90625 17.398438 C 10.21875 17.398438 9.472656 18.042969 9.003906 18.820312 L 7.058594 22.203125 L 19.230469 22.203125 C 19.914062 22.203125 20.664062 21.558594 21.132812 20.78125 L 23.078125 17.398438 Z M 10.90625 17.398438 " fill-opacity="1" fill-rule="evenodd"/><g clip-path="url(#78239dd285)"><path fill="#0987eb" d="M 7.164062 23.914062 C 6.480469 23.914062 5.730469 24.558594 5.261719 25.335938 L 3.316406 28.71875 L 15.488281 28.71875 C 16.175781 28.71875 16.921875 28.074219 17.390625 27.296875 L 19.335938 23.914062 Z M 7.164062 23.914062 " fill-opacity="1" fill-rule="evenodd"/></g></svg>