<?xml version="1.0" encoding="UTF-8" standalone="no"?>
<svg xmlns="http://www.w3.org/2000/svg" xmlns:xlink="http://www.w3.org/1999/xlink" version="1.1" viewBox="0 0 600 200">
  <g>
    <!-- Magnifying glass -->
    <path fill="#000000" d="M20,120 L50,90 C40,80 40,60 50,50 C60,40 80,40 90,50 C100,60 100,80 90,90 L120,120 L100,140 L70,110 C60,120 40,120 30,110 C20,100 10,130 20,120 Z" />
    
    <!-- C with SA flag -->
    <circle cx="70" cy="70" r="30" fill="#0039A6" />
    <path fill="#FFFFFF" d="M70,50 L50,70 L70,90 L90,70 Z" />
    <path fill="#007A3D" d="M70,60 L60,70 L70,80 L80,70 Z" />
    <path fill="#DE3831" d="M50,70 L90,70 L85,75 L55,75 Z" />
    
    <!-- "ar" text -->
    <path fill="#0039A6" d="M110,50 L140,50 C150,50 160,60 160,70 C160,80 150,90 140,90 L120,90 L120,120 L110,120 L110,50 Z M120,60 L120,80 L140,80 C145,80 150,75 150,70 C150,65 145,60 140,60 L120,60 Z" />
    <path fill="#0039A6" d="M170,50 L180,50 L180,80 C180,85 185,90 190,90 C195,90 200,85 200,80 L200,50 L210,50 L210,80 C210,90 200,100 190,100 C180,100 170,90 170,80 L170,50 Z" />
    
    <!-- "find" text -->
    <path fill="#ED1C24" d="M220,50 L230,50 L230,120 L220,120 L220,50 Z" />
    <path fill="#ED1C24" d="M240,50 L250,50 L250,70 C255,55 265,50 275,50 L275,60 C265,60 250,65 250,85 L250,120 L240,120 L240,50 Z" />
    <path fill="#ED1C24" d="M280,50 L290,50 L290,120 L280,120 L280,50 Z" />
    <path fill="#ED1C24" d="M300,50 L310,50 L310,70 C315,55 325,50 335,50 C345,50 355,60 355,70 L355,120 L345,120 L345,75 C345,65 340,60 330,60 C320,60 310,65 310,80 L310,120 L300,120 L300,50 Z" />
    
    <!-- ".co" text -->
    <path fill="#FFCC29" d="M370,70 A15,15 0 1,1 370,100 A15,15 0 1,1 370,70 Z" />
    <path fill="#FFCC29" d="M410,70 C420,70 430,80 430,90 C430,100 420,110 410,110 C400,110 390,100 390,90 C390,80 400,70 410,70 Z M410,80 C405,80 400,85 400,90 C400,95 405,100 410,100 C415,100 420,95 420,90 C420,85 415,80 410,80 Z" />
    
    <!-- ".za" text -->
    <path fill="#007A3D" d="M450,70 A15,15 0 1,1 450,100 A15,15 0 1,1 450,70 Z" />
    <path fill="#007A3D" d="M480,70 L510,70 L480,110 L510,110 L510,120 L470,120 L500,80 L470,80 L470,70 Z" />
    
    <!-- Vehicle icons -->
    <path fill="#000000" d="M50,160 C50,155 60,155 60,160 L70,160 C70,155 80,155 80,160 L90,160 C90,155 95,155 95,160 L95,165 L45,165 L45,160 Z" />
    <path fill="#0039A6" d="M150,160 C150,155 160,155 160,160 L165,155 L175,155 L180,160 L190,160 C190,155 200,155 200,160 L200,165 L150,165 L150,160 Z" />
    <path fill="#ED1C24" d="M250,160 C250,155 260,155 260,160 L270,160 L270,155 L280,155 L280,160 L290,160 C290,155 300,155 300,160 L300,165 L250,165 L250,160 Z" />
    <path fill="#FFCC29" d="M350,160 C350,155 360,155 360,160 L370,160 L375,155 L385,155 L390,160 L400,160 C400,155 410,155 410,160 L410,165 L350,165 L350,160 Z" />
    <path fill="#007A3D" d="M450,160 C450,155 460,155 460,160 L470,160 L475,155 L485,155 L490,160 L500,160 C500,155 510,155 510,160 L510,165 L450,165 L450,160 Z" />
    <path fill="#000000" d="M550,160 C550,155 560,155 560,160 L570,160 L575,155 L585,155 L590,160 L600,160 C600,155 610,155 610,160 L610,165 L550,165 L550,160 Z" />
    
    <!-- Registered trademark -->
    <circle cx="580" cy="30" r="10" fill="none" stroke="#000000" stroke-width="1" />
    <text x="580" y="33" font-family="Arial" font-size="12" text-anchor="middle" fill="#000000">®</text>
  </g>
</svg>
