<svg version="1.1" id="Layer_1" xmlns="http://www.w3.org/2000/svg" xmlns:xlink="http://www.w3.org/1999/xlink" x="0px" y="0px"
	 width="100%" viewBox="0 0 320 96" enable-background="new 0 0 320 96" xml:space="preserve">
<path fill="#FFFEFE" opacity="1.000000" stroke="none" 
	d="
M208.000000,97.000000 
	C138.666687,97.000000 69.833374,97.000000 1.000046,97.000000 
	C1.000031,65.000031 1.000031,33.000061 1.000015,1.000068 
	C107.666603,1.000045 214.333206,1.000045 320.999878,1.000023 
	C320.999908,32.999928 320.999908,64.999855 320.999939,96.999893 
	C283.500000,97.000000 246.000000,97.000000 208.000000,97.000000 
M30.677084,95.174263 
	C47.799290,95.212929 75.302452,79.385910 75.218803,69.638512 
	C69.253922,73.669739 63.499840,78.186798 57.180313,81.681305 
	C47.836231,86.848289 37.789394,89.674271 26.955250,87.058578 
	C19.289326,85.207794 15.574248,79.814049 17.486729,72.191910 
	C18.764605,67.098953 20.516815,61.834225 23.331352,57.467991 
	C35.493855,38.600113 51.731926,24.093948 72.195915,14.682160 
	C76.338867,12.776737 81.086845,11.810466 85.650871,11.347511 
	C88.123924,11.096656 91.880447,12.095587 93.065979,13.865243 
	C94.179909,15.528019 93.438545,19.419472 92.156235,21.489565 
	C89.740768,25.388945 86.374649,28.705660 83.349358,32.217758 
	C82.263931,33.477844 81.021645,34.602810 79.579437,36.064644 
	C80.866959,36.603722 81.349876,37.010933 81.756966,36.945602 
	C87.805428,35.974964 98.053612,24.533531 97.854942,18.272280 
	C97.767731,15.523728 96.559372,12.385796 94.862816,10.198012 
	C90.805672,4.966118 84.735428,4.059392 78.588646,4.587238 
	C64.809792,5.770477 52.522957,11.270463 41.319504,18.980320 
	C25.352903,29.968018 12.212026,43.411282 7.492594,63.062138 
	C3.444113,79.919273 12.579014,92.875694 30.677084,95.174263 
M106.922218,43.267208 
	C106.169426,43.618355 105.401802,43.941063 104.666084,44.324928 
	C94.156204,49.808552 84.908035,56.767284 79.418610,67.585518 
	C77.276352,71.807343 76.338516,76.723526 79.576370,80.848274 
	C82.788734,84.940559 87.726448,85.659248 92.319275,84.117706 
	C98.341263,82.096474 104.055428,79.158134 109.278030,76.885735 
	C111.094414,78.912872 112.909737,81.819687 115.512833,83.521614 
	C117.137306,84.583694 119.950722,83.827301 122.230591,83.886955 
	C121.974983,81.040031 122.743484,76.594360 121.269180,75.649979 
	C117.072250,72.961563 118.665482,69.984558 120.157082,67.610695 
	C124.026825,61.452026 128.581039,55.727600 132.637115,49.679008 
	C133.670792,48.137535 134.811462,44.834839 134.273132,44.410889 
	C132.558914,43.060863 130.111511,42.543102 127.875465,41.999676 
	C126.887321,41.759529 125.543312,42.670433 124.673248,42.308281 
	C118.853172,39.885765 113.259102,40.999435 106.922218,43.267208 
M193.743652,80.361008 
	C196.787338,77.839760 200.320648,75.714027 202.754898,72.700478 
	C206.042877,68.629982 205.006592,64.499016 200.165390,62.602348 
	C196.089676,61.005592 191.542053,60.441044 187.144318,59.894775 
	C183.806076,59.480118 180.375061,59.812553 176.985321,59.812553 
	C176.863419,59.166866 176.741501,58.521183 176.619598,57.875496 
	C185.834610,49.961552 197.936081,50.637611 209.027084,48.698578 
	C208.887634,42.420044 206.669464,39.413765 201.822479,39.907879 
	C191.093353,41.001640 180.923248,44.250164 172.507629,51.150967 
	C170.227158,53.020969 168.458328,57.138653 168.686981,60.049328 
	C168.999207,64.023880 173.311951,64.762032 176.886566,65.049385 
	C182.021713,65.462189 187.186584,65.546448 192.306885,66.078079 
	C193.941208,66.247772 195.474182,67.393600 197.053528,68.092789 
	C195.958908,69.397179 195.112686,71.126297 193.728622,71.935776 
	C185.807465,76.568497 177.049149,78.446182 167.993958,78.943985 
	C164.534302,79.134171 161.043198,78.752434 157.566437,78.631332 
	C157.400162,77.947914 157.233871,77.264503 157.067596,76.581085 
	C160.294571,74.540352 163.521545,72.499611 166.748520,70.458878 
	C163.477982,70.048378 160.340149,69.975952 157.726822,71.111053 
	C155.453369,72.098518 151.947342,74.807968 152.205536,76.125641 
	C152.762192,78.966591 155.222275,81.543213 157.255707,83.927628 
	C157.973495,84.769310 159.701279,84.810303 160.995285,85.090424 
	C172.217926,87.519814 182.756180,84.810013 193.743652,80.361008 
M153.370178,53.774235 
	C158.777939,51.808262 164.220337,49.929817 169.568497,47.813225 
	C170.864670,47.300251 171.850006,46.001904 172.978287,45.064697 
	C171.890686,43.817101 171.010422,41.908047 169.664032,41.485981 
	C167.901398,40.933426 165.673111,41.214722 163.818863,41.744904 
	C160.232376,42.770382 156.767410,44.220867 153.253052,45.498093 
	C152.417221,41.087376 152.185852,40.942444 146.361679,41.157055 
	C140.495117,50.999977 134.645462,60.829773 128.779770,70.649994 
	C125.581772,76.004013 125.798462,78.068077 130.113495,82.693825 
	C133.267334,86.074753 135.193130,85.791473 137.022064,81.512657 
	C139.560394,75.574196 141.554474,69.356361 144.598877,63.697868 
	C146.539825,60.090332 149.959885,57.278599 153.370178,53.774235 
M243.282089,64.660118 
	C242.399231,65.836632 241.300949,66.908882 240.672104,68.208321 
	C238.365433,72.974747 239.412735,78.670624 243.021118,81.877487 
	C246.403915,84.883865 252.300507,85.397728 256.510132,83.053001 
	C260.612366,80.768082 262.709473,75.651924 261.601196,70.632828 
	C259.869415,62.789986 252.451385,60.092190 243.282089,64.660118 
M312.372894,62.814831 
	C309.440918,62.820656 306.482513,62.580467 303.583313,62.891651 
	C299.529510,63.326763 299.798309,65.509109 301.704651,68.163567 
	C308.400208,66.384148 308.588562,66.417702 310.194031,69.229576 
	C307.466980,70.079529 304.492432,70.624283 301.886688,71.914108 
	C298.512451,73.584351 297.776489,77.202057 299.240540,80.048775 
	C300.291992,82.093193 303.271759,84.063057 305.592590,84.332535 
	C309.536896,84.790504 313.639771,83.882660 317.856567,83.533844 
	C317.856567,79.415474 318.445038,75.172447 317.660553,71.200607 
	C317.087250,68.298019 314.707397,65.752243 312.372894,62.814831 
M282.281952,74.797333 
	C280.650635,77.521797 279.019318,80.246269 276.902557,83.781509 
	C284.606293,83.781509 290.531769,83.781509 296.563049,83.781509 
	C296.563049,81.986389 296.563049,80.436935 296.563049,78.667542 
	C293.595795,78.502724 290.898315,78.352890 288.072937,78.195946 
	C290.110992,72.566887 297.147766,70.048836 295.958649,63.022377 
	C290.269379,63.022377 284.856140,63.022377 279.244598,63.022377 
	C279.244598,64.791710 279.244598,66.349762 279.244598,68.313644 
	C281.886963,68.313644 284.272675,68.313644 287.441528,68.313644 
	C285.546692,70.711044 284.150360,72.477730 282.281952,74.797333 
M233.982971,84.309113 
	C238.462662,84.277168 238.366364,82.044998 236.702927,78.981133 
	C229.974014,79.054878 227.577026,77.481659 227.670029,73.158669 
	C227.757095,69.112175 230.089905,67.703644 236.914978,67.635498 
	C237.247177,66.255112 237.584534,64.853279 237.966415,63.266434 
	C232.345306,61.258495 227.525665,61.895855 223.474899,65.930550 
	C219.983948,69.407646 220.023102,73.891228 221.472763,78.045181 
	C223.335846,83.383789 228.013672,84.635834 233.982971,84.309113 
M264.878754,76.571609 
	C263.421387,81.406410 264.635376,84.845413 268.307739,84.923721 
	C270.229156,84.964691 273.209869,83.772171 273.865845,82.308998 
	C274.664948,80.526581 274.272064,77.289253 273.053955,75.725967 
	C270.911316,72.976120 267.845734,73.523064 264.878754,76.571609 
M210.732422,85.063805 
	C212.849884,83.920090 215.849762,83.285583 216.873856,81.510918 
	C218.336182,78.976883 217.489853,75.482719 214.175552,74.707634 
	C212.222931,74.250992 208.813324,75.073997 207.815964,76.527267 
	C205.822128,79.432480 206.017227,82.898163 210.732422,85.063805 
z"/>
<path fill="#CB1417" opacity="1.000000" stroke="none" 
	d="
M30.221399,95.141228 
	C12.579014,92.875694 3.444113,79.919273 7.492594,63.062138 
	C12.212026,43.411282 25.352903,29.968018 41.319504,18.980320 
	C52.522957,11.270463 64.809792,5.770477 78.588646,4.587238 
	C84.735428,4.059392 90.805672,4.966118 94.862816,10.198012 
	C96.559372,12.385796 97.767731,15.523728 97.854942,18.272280 
	C98.053612,24.533531 87.805428,35.974964 81.756966,36.945602 
	C81.349876,37.010933 80.866959,36.603722 79.579437,36.064644 
	C81.021645,34.602810 82.263931,33.477844 83.349358,32.217758 
	C86.374649,28.705660 89.740768,25.388945 92.156235,21.489565 
	C93.438545,19.419472 94.179909,15.528019 93.065979,13.865243 
	C91.880447,12.095587 88.123924,11.096656 85.650871,11.347511 
	C81.086845,11.810466 76.338867,12.776737 72.195915,14.682160 
	C51.731926,24.093948 35.493855,38.600113 23.331352,57.467991 
	C20.516815,61.834225 18.764605,67.098953 17.486729,72.191910 
	C15.574248,79.814049 19.289326,85.207794 26.955250,87.058578 
	C37.789394,89.674271 47.836231,86.848289 57.180313,81.681305 
	C63.499840,78.186798 69.253922,73.669739 75.218803,69.638512 
	C75.302452,79.385910 47.799290,95.212929 30.221399,95.141228 
z"/>
<path fill="#CB1417" opacity="1.000000" stroke="none" 
	d="
M107.295952,43.145042 
	C113.259102,40.999435 118.853172,39.885765 124.673248,42.308281 
	C125.543312,42.670433 126.887321,41.759529 127.875465,41.999676 
	C130.111511,42.543102 132.558914,43.060863 134.273132,44.410889 
	C134.811462,44.834839 133.670792,48.137535 132.637115,49.679008 
	C128.581039,55.727600 124.026825,61.452026 120.157082,67.610695 
	C118.665482,69.984558 117.072250,72.961563 121.269180,75.649979 
	C122.743484,76.594360 121.974983,81.040031 122.230591,83.886963 
	C119.950722,83.827301 117.137306,84.583694 115.512833,83.521614 
	C112.909737,81.819687 111.094414,78.912872 109.278030,76.885735 
	C104.055428,79.158134 98.341263,82.096474 92.319275,84.117706 
	C87.726448,85.659248 82.788734,84.940559 79.576370,80.848274 
	C76.338516,76.723526 77.276352,71.807343 79.418610,67.585518 
	C84.908035,56.767284 94.156204,49.808552 104.666084,44.324928 
	C105.401802,43.941063 106.169426,43.618355 107.295952,43.145042 
M115.575142,47.931316 
	C104.659363,50.295971 95.972328,56.084503 90.374138,65.709785 
	C88.766548,68.473778 87.538300,73.833282 88.998230,75.508568 
	C91.971832,78.920815 96.448418,76.126900 99.059196,73.615173 
	C106.197655,66.747543 112.859886,59.379875 119.593559,52.101841 
	C120.624100,50.987991 121.033272,49.299244 122.181847,46.953041 
	C119.559402,47.354866 117.975632,47.597542 115.575142,47.931316 
z"/>
<path fill="#CB1518" opacity="1.000000" stroke="none" 
	d="
M193.427094,80.561340 
	C182.756180,84.810013 172.217926,87.519814 160.995285,85.090424 
	C159.701279,84.810303 157.973495,84.769310 157.255707,83.927628 
	C155.222275,81.543213 152.762192,78.966591 152.205536,76.125641 
	C151.947342,74.807968 155.453369,72.098518 157.726822,71.111053 
	C160.340149,69.975952 163.477982,70.048378 166.748520,70.458878 
	C163.521545,72.499611 160.294571,74.540352 157.067596,76.581085 
	C157.233871,77.264503 157.400162,77.947914 157.566437,78.631332 
	C161.043198,78.752434 164.534302,79.134171 167.993958,78.943985 
	C177.049149,78.446182 185.807465,76.568497 193.728622,71.935776 
	C195.112686,71.126297 195.958908,69.397179 197.053528,68.092789 
	C195.474182,67.393600 193.941208,66.247772 192.306885,66.078079 
	C187.186584,65.546448 182.021713,65.462189 176.886566,65.049385 
	C173.311951,64.762032 168.999207,64.023880 168.686981,60.049328 
	C168.458328,57.138653 170.227158,53.020969 172.507629,51.150967 
	C180.923248,44.250164 191.093353,41.001640 201.822479,39.907879 
	C206.669464,39.413765 208.887634,42.420044 209.027084,48.698578 
	C197.936081,50.637611 185.834610,49.961552 176.619598,57.875496 
	C176.741501,58.521183 176.863419,59.166866 176.985321,59.812553 
	C180.375061,59.812553 183.806076,59.480118 187.144318,59.894775 
	C191.542053,60.441044 196.089676,61.005592 200.165390,62.602348 
	C205.006592,64.499016 206.042877,68.629982 202.754898,72.700478 
	C200.320648,75.714027 196.787338,77.839760 193.427094,80.561340 
z"/>
<path fill="#CB1417" opacity="1.000000" stroke="none" 
	d="
M153.043457,53.942146 
	C149.959885,57.278599 146.539825,60.090332 144.598877,63.697868 
	C141.554474,69.356361 139.560394,75.574196 137.022064,81.512657 
	C135.193130,85.791473 133.267334,86.074753 130.113495,82.693825 
	C125.798462,78.068077 125.581772,76.004013 128.779770,70.649994 
	C134.645462,60.829773 140.495117,50.999977 146.361679,41.157055 
	C152.185852,40.942444 152.417221,41.087376 153.252563,45.496639 
	C156.767410,44.220867 160.232376,42.770382 163.818863,41.744904 
	C165.673111,41.214722 167.901398,40.933426 169.664032,41.485981 
	C171.010422,41.908047 171.890686,43.817101 172.978287,45.064697 
	C171.850006,46.001904 170.864670,47.300251 169.568497,47.813225 
	C164.220337,49.929817 158.777939,51.808262 153.043457,53.942146 
z"/>
<path fill="#CC191C" opacity="1.000000" stroke="none" 
	d="
M243.578552,64.423141 
	C252.451385,60.092190 259.869415,62.789986 261.601196,70.632828 
	C262.709473,75.651924 260.612366,80.768082 256.510132,83.053001 
	C252.300507,85.397728 246.403915,84.883865 243.021118,81.877487 
	C239.412735,78.670624 238.365433,72.974747 240.672104,68.208321 
	C241.300949,66.908882 242.399231,65.836632 243.578552,64.423141 
M254.824387,72.746735 
	C253.430786,67.653564 250.494308,65.516640 248.697266,68.184799 
	C247.250259,70.333267 247.136093,73.680038 247.286377,76.448685 
	C247.342743,77.487206 249.814514,78.394623 251.185059,79.361824 
	C252.401993,77.422226 253.618912,75.482635 254.824387,72.746735 
z"/>
<path fill="#CC181B" opacity="1.000000" stroke="none" 
	d="
M312.752869,62.931126 
	C314.707397,65.752243 317.087250,68.298019 317.660553,71.200607 
	C318.445038,75.172447 317.856567,79.415474 317.856567,83.533844 
	C313.639771,83.882660 309.536896,84.790504 305.592590,84.332535 
	C303.271759,84.063057 300.291992,82.093193 299.240540,80.048775 
	C297.776489,77.202057 298.512451,73.584351 301.886688,71.914108 
	C304.492432,70.624283 307.466980,70.079529 310.194031,69.229576 
	C308.588562,66.417702 308.400208,66.384148 301.704651,68.163567 
	C299.798309,65.509109 299.529510,63.326763 303.583313,62.891651 
	C306.482513,62.580467 309.440918,62.820656 312.752869,62.931126 
M311.145721,76.234383 
	C310.406281,75.563622 309.323212,74.184021 308.987762,74.346634 
	C307.643158,74.998466 306.449829,76.054169 305.423065,77.165993 
	C305.277557,77.323517 306.649048,79.338814 306.828217,79.267235 
	C308.298859,78.679688 309.653442,77.801544 311.145721,76.234383 
z"/>
<path fill="#CB1518" opacity="1.000000" stroke="none" 
	d="
M282.518005,74.520874 
	C284.150360,72.477730 285.546692,70.711044 287.441528,68.313644 
	C284.272675,68.313644 281.886963,68.313644 279.244598,68.313644 
	C279.244598,66.349762 279.244598,64.791710 279.244598,63.022377 
	C284.856140,63.022377 290.269379,63.022377 295.958649,63.022377 
	C297.147766,70.048836 290.110992,72.566887 288.072937,78.195946 
	C290.898315,78.352890 293.595795,78.502724 296.563049,78.667542 
	C296.563049,80.436935 296.563049,81.986389 296.563049,83.781509 
	C290.531769,83.781509 284.606293,83.781509 276.902557,83.781509 
	C279.019318,80.246269 280.650635,77.521797 282.518005,74.520874 
z"/>
<path fill="#CB171A" opacity="1.000000" stroke="none" 
	d="
M233.590759,84.383514 
	C228.013672,84.635834 223.335846,83.383789 221.472763,78.045181 
	C220.023102,73.891228 219.983948,69.407646 223.474899,65.930550 
	C227.525665,61.895855 232.345306,61.258495 237.966415,63.266434 
	C237.584534,64.853279 237.247177,66.255112 236.914978,67.635498 
	C230.089905,67.703644 227.757095,69.112175 227.670029,73.158669 
	C227.577026,77.481659 229.974014,79.054878 236.702927,78.981133 
	C238.366364,82.044998 238.462662,84.277168 233.590759,84.383514 
z"/>
<path fill="#CC181B" opacity="1.000000" stroke="none" 
	d="
M265.083679,76.235054 
	C267.845734,73.523064 270.911316,72.976120 273.053955,75.725967 
	C274.272064,77.289253 274.664948,80.526581 273.865845,82.308998 
	C273.209869,83.772171 270.229156,84.964691 268.307739,84.923721 
	C264.635376,84.845413 263.421387,81.406410 265.083679,76.235054 
z"/>
<path fill="#CB1619" opacity="1.000000" stroke="none" 
	d="
M210.332214,84.963966 
	C206.017227,82.898163 205.822128,79.432480 207.815964,76.527267 
	C208.813324,75.073997 212.222931,74.250992 214.175552,74.707634 
	C217.489853,75.482719 218.336182,78.976883 216.873856,81.510918 
	C215.849762,83.285583 212.849884,83.920090 210.332214,84.963966 
z"/>
<path fill="#FEFAFA" opacity="1.000000" stroke="none" 
	d="
M115.983498,47.885765 
	C117.975632,47.597542 119.559402,47.354866 122.181847,46.953041 
	C121.033272,49.299244 120.624100,50.987991 119.593559,52.101841 
	C112.859886,59.379875 106.197655,66.747543 99.059196,73.615173 
	C96.448418,76.126900 91.971832,78.920815 88.998230,75.508568 
	C87.538300,73.833282 88.766548,68.473778 90.374138,65.709785 
	C95.972328,56.084503 104.659363,50.295971 115.983498,47.885765 
z"/>
<path fill="#FCEFF0" opacity="1.000000" stroke="none" 
	d="
M254.830109,73.144890 
	C253.618912,75.482635 252.401993,77.422226 251.185059,79.361816 
	C249.814514,78.394623 247.342743,77.487206 247.286377,76.448685 
	C247.136093,73.680038 247.250259,70.333267 248.697266,68.184799 
	C250.494308,65.516640 253.430786,67.653564 254.830109,73.144890 
z"/>
<path fill="#FAE6E7" opacity="1.000000" stroke="none" 
	d="
M311.094482,76.622986 
	C309.653442,77.801544 308.298859,78.679688 306.828217,79.267235 
	C306.649048,79.338814 305.277557,77.323517 305.423065,77.165993 
	C306.449829,76.054169 307.643158,74.998466 308.987762,74.346634 
	C309.323212,74.184021 310.406281,75.563622 311.094482,76.622986 
z"/>
</svg>