<?xml version="1.0" encoding="UTF-8" standalone="no"?>
<svg xmlns="http://www.w3.org/2000/svg" xmlns:xlink="http://www.w3.org/1999/xlink" version="1.1" viewBox="0 0 800 400">
  <defs>
    <linearGradient id="carGradient" x1="0%" y1="0%" x2="100%" y2="100%">
      <stop offset="0%" stop-color="#2dd4bf" />
      <stop offset="100%" stop-color="#0d9488" />
    </linearGradient>
    <filter id="shadow" x="-20%" y="-20%" width="140%" height="140%">
      <feDropShadow dx="0" dy="10" stdDeviation="15" flood-color="#0f172a" flood-opacity="0.5"/>
    </filter>
  </defs>
  <path d="M750,240 C750,240 730,230 710,230 C690,230 670,240 650,240 C630,240 610,230 590,230 C570,230 550,240 530,240 C510,240 490,230 470,230 C450,230 430,240 410,240 C390,240 370,230 350,230 C330,230 310,240 290,240 C270,240 250,230 230,230 C210,230 190,240 170,240 C150,240 130,230 110,230 C90,230 70,240 50,240 L50,280 C70,280 90,270 110,270 C130,270 150,280 170,280 C190,280 210,270 230,270 C250,270 270,280 290,280 C310,280 330,270 350,270 C370,270 390,280 410,280 C430,280 450,270 470,270 C490,270 510,280 530,280 C550,280 570,270 590,270 C610,270 630,280 650,280 C670,280 690,270 710,270 C730,270 750,280 750,280 Z" fill="#333" />
  <path d="M700,180 C680,160 650,150 620,150 C590,150 560,160 540,180 C520,200 510,230 510,260 C510,290 520,320 540,340 C560,360 590,370 620,370 C650,370 680,360 700,340 C720,320 730,290 730,260 C730,230 720,200 700,180 Z M680,320 C665,335 645,345 620,345 C595,345 575,335 560,320 C545,305 535,285 535,260 C535,235 545,215 560,200 C575,185 595,175 620,175 C645,175 665,185 680,200 C695,215 705,235 705,260 C705,285 695,305 680,320 Z" fill="url(#carGradient)" filter="url(#shadow)" />
  <path d="M620,200 L590,230 L620,260 L650,230 Z" fill="#222" />
  <circle cx="580" cy="230" r="15" fill="#222" />
  <circle cx="660" cy="230" r="15" fill="#222" />
  <path d="M680,230 L730,230 L720,240 L680,240 Z" fill="#222" />
  <path d="M560,230 L510,230 L520,240 L560,240 Z" fill="#222" />
  <path d="M620,260 L620,290 L630,280 L630,260 Z" fill="#222" />
  <path d="M620,260 L620,290 L610,280 L610,260 Z" fill="#222" />
  <path d="M750,240 C750,240 730,230 710,230 L720,220 L760,230 Z" fill="#222" />
  <path d="M50,240 C50,240 70,230 90,230 L80,220 L40,230 Z" fill="#222" />
</svg>
